<?xml version="1.0" encoding="iso-8859-1"?>
<!-- Uploaded to: SVG Repo, www.svgrepo.com, Generator: SVG Repo Mixer Tools -->
<svg version="1.1" id="Layer_1" xmlns="http://www.w3.org/2000/svg" xmlns:xlink="http://www.w3.org/1999/xlink" 
	 viewBox="0 0 465 465" xml:space="preserve">
<g>
	<g>
		<path style="fill:#FFD248;" d="M232.5,7.5c124.224,0,225,100.776,225,225s-100.776,225-225,225s-225-100.776-225-225
			S108.276,7.5,232.5,7.5z"/>
	</g>
	<g>
		<path d="M232.5,0C104.299,0,0,104.299,0,232.5S104.299,465,232.5,465S465,360.701,465,232.5S360.701,0,232.5,0z M384.24,388.161
			c-4.589-13.479-14.576-33.482-35.946-49.949c-32.604-25.123-79.901-33.306-140.577-24.315
			c-41.268,6.113-95.28,8.051-118.247-17.44c-14.95-16.594-9.809-37.491-9.591-38.339l-14.493-3.865
			c-0.316,1.187-7.517,29.322,12.761,52.044c21.947,24.592,66.279,32.143,131.769,22.438c56.318-8.344,99.707-1.224,128.962,21.159
			c22.408,17.145,30.383,39.171,33.012,49.432c-16.56,13.859-35.201,25.308-55.387,33.792c-3.97-5.526-10.218-12.802-19.429-20.01
			c-16.46-12.883-46.162-28.239-94.178-28.239v15c34.201,0,63.316,8.465,84.197,24.48c6.568,5.038,11.382,10.105,14.771,14.309
			C280.069,446.01,256.742,450,232.5,450C112.57,450,15,352.43,15,232.5c0-46.479,14.663-89.594,39.594-124.978
			c8.379,9.178,25.906,26.247,52.063,41.194c34.301,19.6,90.468,38.979,163.262,19.988c48.611-12.682,85.084-10.669,108.406,5.983
			c22.214,15.86,24.249,39.578,24.323,40.548l14.967-0.998c-0.085-1.274-2.402-31.454-30.297-51.561
			c-27.107-19.537-67.879-22.394-121.184-8.486c-29.892,7.797-59.24,9.391-87.23,4.737c-22.393-3.725-44.015-11.438-64.266-22.93
			c-26.81-15.213-44.184-33.16-50.799-40.664c18.889-23.182,42.445-42.415,69.232-56.241c7.834,14.922,37.454,53.297,134.876,53.297
			c5.815,0,11.876-0.137,18.184-0.424l-0.681-14.984c-35.389,1.611-84.421-0.953-117.043-22.294
			c-12.885-8.429-19.073-17.206-21.735-22.021C173.017,21.307,202.034,15,232.5,15C352.43,15,450,112.57,450,232.5
			C450,293.46,424.78,348.632,384.24,388.161z"/>
		<path d="M282.753,239.759c-72.036-30.016-171.282-18.783-175.472-18.289l1.751,14.897c0.988-0.117,99.583-11.25,167.951,17.237
			c33.466,13.944,64.258,17.774,87.995,17.773c27.821,0,45.947-5.263,47.309-5.671l-4.299-14.371
			C407.418,251.506,350.274,267.892,282.753,239.759z"/>
		<rect x="309.474" y="76.974" width="23.684" height="15"/>
		<rect x="155.526" y="384.868" width="23.684" height="15"/>
		<rect x="315.395" y="195.395" width="23.685" height="15"/>
		<rect x="54.868" y="183.553" width="23.685" height="15"/>
		<rect x="368.684" y="301.974" width="23.684" height="15"/>
		<rect x="232.5" y="272.368" width="23.684" height="15"/>
		<rect x="161.447" y="106.579" width="23.684" height="15"/>
	</g>
</g>
</svg>